<?xml version="1.0" encoding="utf-8"?>
<!-- Generator: Adobe Illustrator 21.0.2, SVG Export Plug-In . SVG Version: 6.00 Build 0)  -->
<svg version="1.1" id="Calque_1" xmlns="http://www.w3.org/2000/svg" xmlns:xlink="http://www.w3.org/1999/xlink" x="0px" y="0px"
	 viewBox="0 0 510.2 207.5" style="enable-background:new 0 0 510.2 207.5;" xml:space="preserve">
<style type="text/css">
	.st0{fill:#49C3B1;}
</style>
<g>
	<path id="XMLID_137_" class="st0" d="M442.4,93.9c-0.2,3-0.3,6-0.4,9.1c-0.2,3.9-0.3,7.9-0.4,11.8c-0.3,8.3-0.5,16.5-1,24.8
		c-0.2,4.5-0.9,8.9-1.2,13.4c-0.3,3.7-0.4,7.4-0.4,11c0,4.4,0.4,8.9,0.4,13.3c0,0.4-0.8,1.1-1.4,1.3c-1.2,0.4-2.6,0.8-3.9,0.7
		c-4.8-0.3-9.5-0.7-14.3-1.1c-1.9-0.2-2.8-1.2-2.6-3.2c0.3-3.7,0.4-7.5,0.6-11.2c0.3-6.5,0.5-12.9,1-19.4c0.3-3.7,1-7.3,1.4-11
		c0.2-2.1-0.2-4.2-0.1-6.2c0.7-9.6,1.7-19.3,2.4-28.9c0.6-9.3,1.4-18.5,1.3-27.8c0-9.2,0.6-18.2,2.6-27.2c0.4-1.6,0.2-3.4,0.4-5.1
		c0.4-3.9,2-5.3,5.8-5.1c3.5,0.2,7,0.4,10.5,0.5c2.1,0.1,3.5,0.9,4.1,3c1.5,5.1,3.1,10.1,4.7,15.2c0.5,1.6,1.1,3.2,1.6,4.8
		c1,3.4,1.8,6.9,2.9,10.2c1.4,4.2,3,8.2,4.5,12.3c0.6,1.6,1.5,3.3,1.7,5c1,6.8,3.6,13,6.5,19.1c1.4,2.9,1.7,6.2,2.6,9.3
		c1.4,4.7,3,9.3,4.6,14c0.3,0,0.5,0,0.8-0.1c0-0.8,0.1-1.5,0.1-2.3c0.1-5.1,0.3-10.2,0.4-15.3c0.2-9.8,0.3-19.5,0.4-29.3
		c0.1-5.4-0.2-10.9,0.3-16.3c0.7-7,0.7-14,0.1-21c-0.4-4.2,1.7-6.5,5.9-6.3c3.9,0.2,7.7,0.4,11.6,0.6c3,0.1,4.4,1,4.5,4
		c0.2,3.3-0.3,6.7-0.5,10.1c-0.1,2.1-0.3,4.2-0.1,6.2c0.8,7.6-0.2,15.1-1.4,22.6c-0.3,2-0.5,4-0.5,6c-0.3,6.9-0.4,13.8-0.7,20.7
		c-0.2,6.1-0.6,12.1-0.9,18.2c-0.3,6.9-0.6,13.7-1,20.6c-0.1,2.4-0.9,4.7-1.1,7.1c-0.2,2.5,0,5.1,0,7.6c0,3-0.1,6,0,9.1
		c0.1,4,0.2,8,0.5,12c0.1,1.6-0.1,2.3-1.9,2.1c-2.7-0.3-5.4-0.6-8.1-0.7c-2.2-0.1-4.5,0.1-6.7,0c-1.7-0.1-3.3-0.5-5-1
		c-1.8-0.5-2.7-1.7-3.2-3.5c-2.3-8.4-4.7-16.8-7.1-25.1c-2.2-7.5-4.4-14.9-6.7-22.3c-1.4-4.6-2.9-9.3-4.5-13.8
		c-1.9-5.2-4-10.4-6.1-15.6c-0.8-2.2-1.6-4.4-2.4-6.7C442.8,93.9,442.6,93.9,442.4,93.9z"/>
	<path id="XMLID_134_" class="st0" d="M158.4,121.5c-0.2-5-0.3-11.1-0.7-17.2c-0.2-3.1-0.7-6.3-1.1-9.4c-1-6.9,0.2-13.7,0.9-20.5
		c0.5-5.8,1.2-11.6,3.7-17.1c1.9-4.2,3.4-8.6,6.8-11.9c0.6-0.6,1.3-1.2,1.6-1.9c2.2-4.4,6.1-6.6,10.7-7.7c3.7-0.9,7.3-2.2,11-2.4
		c4.5-0.3,9,0,13.5,0.7c5.4,0.8,10,3.6,14.1,7.2c1.7,1.5,3.9,2.6,5.4,4.3c1.7,1.8,3.1,3.9,4.2,6.2c1.6,3.4,3,6.9,4.2,10.5
		c1.5,4.8,3,9.8,3.8,14.7c1,5.5,1.1,11.2,1.8,16.8c0.5,4.9,1.3,9.8,1.8,14.8c0.6,6.3,1.3,12.6,1.4,19c0.1,4.6-0.5,9.2-1.1,13.8
		c-0.5,4.3-1.2,8.5-1.8,12.8c-0.7,4.5-2.4,8.5-5.2,12c-3.3,4-6.9,7.7-10.6,11.3c-0.9,0.9-2.4,1.4-3.7,1.8c-3.5,1-7,2.1-10.5,2.6
		c-7.5,1-15.1,2.5-22.6-0.1c-5-1.7-8.9-4.6-11.7-9.2c-4-6.7-8.3-13.2-10.3-20.8c-0.8-3-1.2-6.2-1.8-9.3
		C160.9,135.7,159.8,129.2,158.4,121.5z M180.9,115.4c0.8,4.1,1.5,7.7,2.2,11.2c1.3,5.8,2.6,11.6,3.9,17.4
		c1.7,7.7,5.5,13.9,13.3,16.6c1.7,0.6,3.8,1.9,5.6,0.4c2.1-1.7,4.2-3.4,6-5.4c1.4-1.6,2.9-3.6,3.4-5.6c2-8.3,2.3-16.8,1.6-25.2
		c-0.4-4.8-1-9.6-1.4-14.4c-0.2-2.4,0.1-4.8-0.3-7.2c-0.6-4.3-1.4-8.7-2.2-13c-0.6-3.2-1.2-6.3-1.8-9.5c-0.5-2.9-0.8-5.7-1.4-8.6
		c-0.3-1.3-0.7-2.7-1.3-3.9c-1.7-3.3-3.5-6.5-5.5-9.6c-0.6-0.9-2-1.6-3.1-1.8c-5.7-1.4-10.5,0.5-14.7,4.3c-2.4,2.1-3,4.9-3.4,7.8
		c-0.6,4.3-1.5,8.7-1.7,13c-0.1,3.9,0.8,7.8,1,11.7c0.2,5.3,1.4,10.7,0.2,16.1C180.9,111.8,181,113.9,180.9,115.4z"/>
	<path id="XMLID_131_" class="st0" d="M326.2,112.7c0.7-5.7,1.4-10.1,1.8-14.6c0.3-3.2,0.3-6.5,0.3-9.7c0.1-6.9,2.3-13.4,3.9-19.9
		c1.4-5.7,3-11.3,6.2-16.3c2.5-3.9,4.6-8,8.5-10.7c0.7-0.5,1.4-1,1.9-1.7c2.9-4,7-5.6,11.7-6c3.8-0.3,7.7-1.1,11.5-0.8
		c4.4,0.4,8.8,1.4,13,2.7c5.2,1.6,9.3,5.1,12.8,9.2c1.4,1.7,3.4,3,4.5,4.9c1.4,2.3,2.6,4.8,3.4,7.3c1.1,3.6,2,7.3,2.6,11
		c0.7,4.9,1.4,9.8,1.5,14.7c0.1,5.6-0.6,11.3-0.8,16.9c-0.2,5-0.2,9.9-0.5,14.9c-0.4,6.3-0.6,12.7-1.5,19c-0.6,4.6-2,9.2-3.2,13.7
		c-1.1,4.1-2.4,8.1-3.7,12.2c-1.3,4.3-3.7,8.1-7,11c-3.9,3.4-8,6.5-12.2,9.6c-1,0.8-2.6,1.1-3.9,1.2c-3.6,0.4-7.2,1-10.8,1
		c-7.6-0.2-15.3,0.2-22.3-3.6c-4.7-2.5-8.1-5.9-10.1-10.8c-3-7.2-6.2-14.3-7.1-22.1c-0.3-2.9-0.3-5.8-0.3-8.8
		C326.4,128.6,326.3,120.1,326.2,112.7z M349.2,112.5c0.2,4.4,0.2,8,0.5,11.5c0.4,6,0.8,12,1.2,18c0.6,7.9,3.4,14.4,10.6,18.5
		c2.9,1.6,5.8,1.6,8.5-0.4c1.6-1.1,3.1-2.3,4.5-3.6c1.3-1.3,2.7-2.7,3.4-4.3c3.1-7.4,4.5-15.3,5.3-23.3c0.5-5.2,0.6-10.5,0.9-15.8
		c0.2-2.4,0.8-4.7,0.8-7.1c0.1-5.2,0-10.5-0.1-15.7c0-2.5-0.4-4.9-0.4-7.4c-0.1-2.9,0-5.8-0.1-8.7c0-1.1-0.4-2.3-0.7-3.4
		c-1.2-3.6-2.4-7.3-3.9-10.8c-0.5-1.1-1.8-2-3-2.4c-5.5-2.1-10.6-1-15.4,2.3c-2.6,1.8-3.5,4.4-4.3,7.1c-1.3,4.2-2.8,8.3-3.6,12.6
		c-0.7,3.8-0.4,7.8-0.8,11.7c-0.5,4.9-1.2,9.9-2,14.8C350.3,108.5,349.6,110.9,349.2,112.5z"/>
	<path id="XMLID_129_" class="st0" d="M277.5,107.3c0,3.5-0.2,7.1,0,10.6c0.4,10,2.9,19.5,5.7,29c0.8,2.8,2.2,5.4,3.7,8
		c2.1,3.6,5.4,5.4,9.6,5.3c1.3,0,2.6,0.6,3.9,0.4c2.5-0.5,4.9-1.3,7.4-2c0.7-0.2,1.4-0.6,2.1-0.8c5-1.4,7.2-0.1,8.5,4.9
		c0.9,3.7,1.8,7.4,2.6,11.1c0.8,3.7-1.2,6.4-4.9,7c-3.3,0.6-6.7,1.7-10,1.8c-4.4,0.2-8.8-0.3-13.2-0.5c-0.8,0-1.5-0.3-2.3-0.3
		c-9.1,0.6-16.7-2.7-22.9-9.3c-0.2-0.2-0.4-0.5-0.5-0.7c-3-6.6-6.1-13.1-8.7-19.8c-1.1-2.9-1.1-6.2-1.8-9.3c-0.8-3.4-1.8-6.7-2.7-10
		c-0.2-0.6-0.4-1.2-0.4-1.8c-0.3-4.4-0.7-8.9-0.8-13.3c-0.2-8.4-0.4-16.9-0.1-25.3c0.3-7.3,1.8-14.6,2-21.9
		c0.2-7.2,3.3-13.3,6.8-19.2c5.1-8.4,12.2-14.5,22.4-15.9c0.3,0,0.6-0.1,0.9-0.2c5.9-3.3,12.4-2.7,18.8-2.7c2.5,0,5.2,0.6,7.3,1.7
		c1.3,0.7,2.6,3.1,2.4,4.5c-0.7,4.9-1.9,9.8-3.1,14.6c-0.7,2.6-2.5,3.4-5,2.2c-5.8-2.9-11.5-1.1-17.1,0.5c-1.7,0.5-3.2,2.7-4.2,4.4
		c-3.3,5.6-4.5,11.9-5.1,18.3c-0.5,4.4-1.2,8.9-1.4,13.3c-0.3,5.1-0.2,10.2-0.3,15.3C277.2,107.3,277.4,107.3,277.5,107.3z"/>
	<path id="XMLID_128_" class="st0" d="M44.6,95.6c8.3-0.6,16.5-1.1,24.7-1.8c2.3-0.2,3.6,0.6,4,2.7c0.6,3.1,1.1,6.2,1.6,9.3
		c0.2,1.4,0.6,2.9,0.3,4.2c-0.8,3.8-3,5.5-6.9,5.8c-3.9,0.3-7.7,0.5-11.6,0.8c-2.5,0.2-4.9,0.6-7.3,1c-1.8,0.3-2.7,1.8-2.6,3.5
		c0.3,5.2,0.7,10.3,1,15.5c0.1,1.5-0.1,3.1,0,4.6c0.3,4.9,0.6,9.8,1,14.7c0.6,7.3,1.2,14.5,1.9,21.8c0.3,3.2-1,5.1-4.1,5.4
		c-5.2,0.4-10.4,0.6-15.5,0.7c-1.9,0-3.4-1.2-3.5-3.3c-0.3-5.6-0.4-11.3-0.8-16.9c-0.5-6.8-1.3-13.5-1.7-20.2
		c-0.4-7.4-0.5-14.8-0.8-22.2c-0.1-1.4-0.5-2.9-0.6-4.3c-0.3-4.2-0.6-8.4-0.9-12.5c-0.7-9.6-1.3-19.1-2-28.7
		c-0.2-2.8-0.5-5.6-0.6-8.4c-0.1-2.8,0.2-5.6-0.1-8.3c-0.5-4.5-1.1-9-1.9-13.5c-0.9-5,1.1-9,5.3-9.3C35.7,35.3,48,34.7,60.2,34
		c4.4-0.3,8.7-0.6,13-0.9c2.7-0.2,4.8,1.9,4.9,4.6c0.2,3.6,0.5,7.3,0.8,10.9c0.3,3.3-0.2,4.2-3.4,4.7c-2.5,0.4-5,0.5-7.6,0.7
		c-3.8,0.3-7.7,0.7-11.5,0.9c-3.3,0.2-6.5,0.5-9.8,0.5c-3.1-0.1-4.7,1.3-4.7,4.4c0,3.7-0.2,7.4,0,11.1c0.2,3.2,1,6.4,1.3,9.6
		c0.4,4.3,0.6,8.5,0.9,12.8C44.3,93.8,44.4,94.3,44.6,95.6z"/>
	<path id="XMLID_127_" class="st0" d="M150,182.4c-2.9,0.1-5.9,0.3-8.8,0.3c-2,0-4-0.2-6-0.4c-6.3-0.5-12.6-1.3-18.9-1.6
		c-5.4-0.3-10.8-0.2-16.1-0.4c-4.7-0.1-6.4-2.8-5.8-7.5c0.8-6.6,1-13.3,1.3-19.9c0.2-5.6,0.1-11.2,0.3-16.7
		c0.5-11.3,0.8-22.6,2-33.8c1.1-10.4,0.4-20.7,1.1-31c0.4-6.2,1.1-12.3,1.4-18.5c0.2-4.2-0.4-8.5-0.1-12.7c0.1-1.8,1.1-3.7,2.2-5.1
		c0.7-0.9,2.5-1.2,3.8-1.2c3.5,0.1,6.9,0.4,10.4,0.9c1.8,0.2,3.7,0.6,5.3,1.3c0.7,0.3,1.1,1.8,1.1,2.8c0,1.7-0.6,3.3-0.6,5
		c-0.4,7.6-0.6,15.3-0.9,22.9c-0.4,8.2-1.2,16.3-1.5,24.5c-0.3,6.9,0,13.8-0.3,20.7c-0.2,4.8-1.1,9.7-1.5,14.5
		c-0.2,2.2,0.3,4.5,0.3,6.7c-0.1,6.8-0.3,13.6-0.4,20.4c0,1,0.1,2,0.2,3c0.1,1.2,0.6,1.7,1.9,1.8c8.3,0.4,16.5,0.9,24.8,1.4
		c1,0.1,2-0.1,3-0.2c2.3-0.2,3.4,0.6,3.4,2.9c-0.1,2.1-0.1,4.2-0.7,6.2c-1.3,4.2-0.5,8.4-0.4,12.6
		C150.2,181.5,150.1,181.7,150,182.4z"/>
</g>
</svg>
